<svg width="118" height="20" viewBox="0 0 118 20" fill="none" xmlns="http://www.w3.org/2000/svg">
<path d="M4.11208 19.7497V13.3417L0 1.85232H2.06807L5.09802 10.7134L8.58488 0H10.4846L6.01182 13.4168V19.7497H4.11208Z" fill="#FF3029"/>
<path d="M16.0876 16.8962C16.0876 17.4969 16.1117 18.0476 16.1597 18.5482C16.2078 19.0489 16.2559 19.4494 16.304 19.7497H14.7169C14.6848 19.6162 14.6528 19.4577 14.6207 19.2741C14.5887 19.0906 14.5646 18.9154 14.5486 18.7485H14.4283C14.1558 19.0989 13.8432 19.3826 13.4905 19.5995C13.1378 19.8165 12.6969 19.9249 12.1679 19.9249C11.3022 19.9249 10.6008 19.5995 10.0638 18.9487C9.5267 18.2979 9.25818 17.3467 9.25818 16.0952C9.25818 15.4277 9.34635 14.8186 9.5227 14.2679C9.69905 13.7172 9.97559 13.2541 10.3523 12.8786C10.7291 12.5032 11.214 12.2111 11.8072 12.0025C12.4004 11.794 13.1218 11.6897 13.9714 11.6897H14.236V10.9387C14.236 10.1043 14.1037 9.50359 13.8392 9.13646C13.5747 8.76933 13.1779 8.58577 12.6488 8.58577C12.1679 8.58577 11.727 8.69841 11.3262 8.9237C10.9255 9.14898 10.5647 9.40346 10.2441 9.68715L9.88341 7.95999C10.1559 7.72637 10.5527 7.50109 11.0737 7.28415C11.5948 7.06721 12.1599 6.95874 12.7691 6.95874C13.2981 6.95874 13.771 7.02549 14.1879 7.15899C14.6047 7.29249 14.9534 7.5136 15.2339 7.82232C15.5145 8.13104 15.7269 8.53988 15.8712 9.04885C16.0155 9.55782 16.0876 10.1961 16.0876 10.9637V16.8962ZM14.236 13.1665H14.0195C13.4424 13.1665 12.9695 13.2291 12.6007 13.3542C12.232 13.4794 11.9435 13.663 11.735 13.9049C11.5266 14.1469 11.3824 14.4348 11.3022 14.7685C11.222 15.1023 11.182 15.4694 11.182 15.8699C11.182 16.6041 11.2982 17.1882 11.5306 17.6221C11.7631 18.0559 12.1198 18.2729 12.6007 18.2729C12.9214 18.2729 13.23 18.1769 13.5266 17.985C13.8232 17.7931 14.0596 17.5553 14.236 17.2716V13.1665Z" fill="#2B2B2B"/>
<path d="M20.2959 19.7497H18.4202V7.10893H20.2959V8.2103H20.4162C20.4963 8.09349 20.6125 7.95999 20.7648 7.8098C20.9171 7.65962 21.0975 7.52195 21.3059 7.39679C21.5143 7.27163 21.7428 7.16733 21.9912 7.0839C22.2397 7.00046 22.5083 6.95874 22.7968 6.95874C24.416 6.95874 25.2256 7.90992 25.2256 9.81231V19.7497H23.3259V9.98753C23.3259 9.50359 23.2297 9.16984 23.0373 8.98627C22.8449 8.80271 22.5644 8.71093 22.1956 8.71093C21.7949 8.71093 21.4342 8.84026 21.1135 9.09892C20.7929 9.35757 20.5204 9.64543 20.2959 9.9625V19.7497Z" fill="#2B2B2B"/>
<path d="M30.7564 19.9249C29.5541 19.9249 28.6403 19.4159 28.0151 18.398C27.3898 17.38 27.0772 15.8865 27.0772 13.9174C27.0772 11.5811 27.458 9.83728 28.2195 8.68584C28.981 7.53439 29.9709 6.95868 31.1893 6.95868C31.4779 6.95868 31.7624 7.00457 32.043 7.09635C32.3235 7.18813 32.552 7.30077 32.7283 7.43427V1.85229H34.604V19.7497H33.2093L33.065 18.7484H32.9447C32.6722 19.0989 32.3636 19.3825 32.0189 19.5995C31.6742 19.8164 31.2534 19.9249 30.7564 19.9249ZM32.7283 9.16143C32.5359 8.96118 32.3315 8.81099 32.1151 8.71087C31.8987 8.61074 31.6302 8.56068 31.3095 8.56068C30.9248 8.56068 30.5921 8.69835 30.3116 8.9737C30.031 9.24904 29.7986 9.61616 29.6142 10.0751C29.4298 10.534 29.2936 11.0596 29.2054 11.652C29.1172 12.2445 29.0731 12.8661 29.0731 13.5169C29.0731 15.0021 29.2174 16.166 29.506 17.0087C29.7946 17.8515 30.2835 18.2728 30.9729 18.2728C31.4378 18.2728 31.8065 18.1727 32.079 17.9724C32.3516 17.7722 32.568 17.5469 32.7283 17.2966V9.16143Z" fill="#2B2B2B"/>
<path d="M43.4294 18.8987C43.0446 19.2157 42.6158 19.466 42.1429 19.6496C41.6699 19.8332 41.1289 19.9249 40.5197 19.9249C39.2692 19.9249 38.2833 19.4202 37.5619 18.4106C36.8404 17.401 36.4797 15.92 36.4797 13.9675C36.4797 12.9496 36.5479 12.0151 36.6841 11.164C36.8204 10.3129 37.0368 9.57451 37.3334 8.94873C37.63 8.32294 38.0107 7.83484 38.4757 7.4844C38.9406 7.13396 39.4937 6.95874 40.1349 6.95874C40.6319 6.95874 41.0888 7.06304 41.5056 7.27163C41.9224 7.48023 42.2751 7.81815 42.5637 8.2854C42.8523 8.75265 43.0767 9.35757 43.237 10.1002C43.3973 10.8428 43.4775 11.7481 43.4775 12.8161V13.8924H38.4276C38.4276 15.3275 38.6159 16.4122 38.9927 17.1465C39.3694 17.8807 39.9345 18.2479 40.688 18.2479C41.2171 18.2479 41.6739 18.1519 42.0587 17.96C42.4435 17.7681 42.7561 17.5804 42.9965 17.3968L43.4294 18.8987ZM40.1349 8.56074C39.5578 8.56074 39.149 8.89866 38.9085 9.57451C38.668 10.2504 38.5157 11.1556 38.4516 12.2904H41.5537C41.5537 11.7564 41.5297 11.26 41.4816 10.801C41.4335 10.3421 41.3573 9.94581 41.2531 9.61206C41.1489 9.27831 41.0046 9.01965 40.8203 8.83609C40.6359 8.65252 40.4075 8.56074 40.1349 8.56074Z" fill="#2B2B2B"/>
<path d="M51.6295 7.13403L49.3691 13.0414L51.894 19.7498H49.9462L48.0705 14.5433L46.2429 19.7498H44.3913L46.9163 13.2166L44.6318 7.13403H46.5796L48.1427 11.7148L49.8019 7.13403H51.6295Z" fill="#2B2B2B"/>
<path d="M62.4989 14.1927H58.4349L57.3287 19.7497H56.2706L59.9258 1.85229H61.1763L64.8074 19.7497H63.6291L62.4989 14.1927ZM58.6273 13.1664H62.3065L60.8156 5.78221C60.7354 5.39839 60.6713 4.98121 60.6232 4.53064C60.5751 4.08008 60.543 3.70461 60.527 3.40424H60.4789C60.4468 3.70461 60.3947 4.06756 60.3226 4.4931C60.2505 4.91863 60.1743 5.33999 60.0942 5.75718L58.6273 13.1664Z" fill="#2B2B2B"/>
<path d="M70.6034 8.28537C69.2405 8.33543 68.2785 9.23655 67.7173 10.9887V19.7497H66.5869V7.13393H67.6211L67.6692 9.66209H67.7414C67.8376 9.36172 67.9698 9.06134 68.1382 8.76097C68.3066 8.46059 68.511 8.18942 68.7515 7.94745C68.992 7.70548 69.2686 7.50523 69.5813 7.3467C69.8939 7.18817 70.2346 7.09221 70.6034 7.05884V8.28537Z" fill="#2B2B2B"/>
<path d="M75.4844 18.9737C75.8692 18.9737 76.2098 18.9069 76.5064 18.7734C76.803 18.6399 77.0555 18.4814 77.2639 18.2978C77.5044 18.1142 77.7128 17.889 77.8891 17.622L78.2498 18.5982C78.0735 18.8652 77.8491 19.0988 77.5765 19.2991C77.3521 19.4826 77.0595 19.6453 76.6988 19.7872C76.3381 19.929 75.9253 19.9999 75.4604 19.9999C74.242 19.9999 73.3001 19.4284 72.6348 18.2853C71.9695 17.1422 71.6368 15.536 71.6368 13.4668C71.6368 11.3808 71.9655 9.76215 72.6228 8.6107C73.2801 7.45926 74.2339 6.88354 75.4844 6.88354C76.1096 6.88354 76.6387 6.99618 77.0715 7.22147C77.5044 7.44675 77.8571 7.72626 78.1296 8.06002L77.817 9.31158C77.5445 8.92776 77.2158 8.59402 76.8311 8.31033C76.4463 8.02664 75.9974 7.8848 75.4844 7.8848C74.5546 7.8848 73.8692 8.36873 73.4284 9.33661C72.9875 10.3045 72.7671 11.6812 72.7671 13.4668C72.7671 15.2023 72.9835 16.554 73.4163 17.5218C73.8492 18.4897 74.5385 18.9737 75.4844 18.9737Z" fill="#2B2B2B"/>
<path d="M85.1514 19.7496C85.1033 19.5828 85.0512 19.37 84.9951 19.1113C84.939 18.8527 84.8949 18.4981 84.8629 18.0475C84.5743 18.6483 84.2136 19.1238 83.7807 19.4743C83.3479 19.8247 82.8268 19.9999 82.2176 19.9999C81.4 19.9999 80.7347 19.6787 80.2217 19.0362C79.7087 18.3938 79.4522 17.4968 79.4522 16.3454C79.4522 14.9937 79.7969 13.9716 80.4862 13.279C81.1756 12.5865 82.1776 12.2402 83.4922 12.2402H84.8148V10.6633C84.8148 9.69539 84.6464 8.99452 84.3098 8.56064C83.9731 8.12676 83.4681 7.90983 82.7948 7.90983C82.2818 7.90983 81.8008 8.03081 81.3519 8.27278C80.9031 8.51475 80.5343 8.85267 80.2458 9.28655L79.9332 8.16014C80.1736 7.82639 80.5383 7.53019 81.0273 7.27153C81.5163 7.01287 82.1054 6.88354 82.7948 6.88354C83.8048 6.88354 84.5783 7.17975 85.1153 7.77216C85.6524 8.36457 85.9209 9.28654 85.9209 10.5381V17.4217C85.9209 17.8556 85.945 18.2936 85.9931 18.7359C86.0412 19.1781 86.1053 19.516 86.1854 19.7496H85.1514ZM82.4581 19.0488C83.0192 19.0488 83.4962 18.8068 83.8889 18.3228C84.2817 17.8389 84.5903 17.2548 84.8148 16.5707V13.0913H83.5162C82.5062 13.0913 81.7608 13.3416 81.2798 13.8422C80.7989 14.3429 80.5584 15.1439 80.5584 16.2452C80.5584 17.1464 80.7307 17.8389 81.0754 18.3228C81.4201 18.8068 81.881 19.0488 82.4581 19.0488Z" fill="#2B2B2B"/>
<path d="M92.3656 7.8848C91.7564 7.8848 91.2274 8.12676 90.7785 8.6107C90.3296 9.09464 89.9529 9.73711 89.6483 10.5381V19.7496H88.5181V7.13386H89.5521L89.6002 9.21145H89.6483C89.7284 8.97783 89.8527 8.72752 90.021 8.46052C90.1894 8.19351 90.3938 7.9432 90.6342 7.70958C90.8747 7.47595 91.1552 7.27987 91.4759 7.12134C91.7965 6.96281 92.1652 6.88354 92.5821 6.88354C93.3997 6.88354 94.0289 7.1422 94.4698 7.65951C94.9106 8.17683 95.1311 8.93611 95.1311 9.93736V19.7496H94.0008V10.0876C94.0008 8.61904 93.4558 7.8848 92.3656 7.8848Z" fill="#2B2B2B"/>
<path d="M100.349 18.9989C100.958 18.9989 101.484 18.7569 101.924 18.273C102.365 17.789 102.738 17.1466 103.043 16.3455V7.13403H104.173V19.7498H103.139L103.091 17.6722H103.043C102.962 17.9058 102.842 18.1561 102.682 18.4231C102.522 18.6901 102.325 18.9405 102.093 19.1741C101.86 19.4077 101.584 19.6038 101.263 19.7623C100.942 19.9209 100.574 20.0001 100.157 20.0001C99.3393 20.0001 98.7141 19.7039 98.2812 19.1115C97.8484 18.5191 97.632 17.6555 97.632 16.5208V7.13403H98.7622V16.3706C98.7622 18.1228 99.2912 18.9989 100.349 18.9989Z" fill="#2B2B2B"/>
<path d="M107.996 19.7496H106.866V7.13386H107.9L107.948 9.03624H107.996C108.093 8.83599 108.217 8.6107 108.369 8.36039C108.521 8.11008 108.71 7.87645 108.934 7.65951C109.159 7.44258 109.419 7.25902 109.716 7.10883C110.012 6.95864 110.345 6.88354 110.714 6.88354C111.98 6.88354 112.726 7.57607 112.95 8.96114H112.974C113.054 8.79427 113.17 8.58985 113.323 8.34788C113.475 8.1059 113.667 7.87645 113.9 7.65951C114.132 7.44258 114.397 7.25902 114.693 7.10883C114.99 6.95864 115.323 6.88354 115.691 6.88354C116.413 6.88354 116.978 7.12551 117.387 7.60945C117.796 8.09339 118 8.81095 118 9.76214V19.7496H116.87V9.91233C116.87 9.21145 116.766 8.69832 116.557 8.37291C116.349 8.0475 116.004 7.8848 115.523 7.8848C114.962 7.8848 114.473 8.1059 114.056 8.54813C113.639 8.99035 113.287 9.55355 112.998 10.2377V19.7496H111.868V9.91233C111.868 9.21145 111.768 8.69832 111.567 8.37291C111.367 8.0475 111.026 7.8848 110.545 7.8848C109.984 7.8848 109.495 8.11008 109.078 8.56064C108.662 9.01121 108.301 9.61195 107.996 10.3629V19.7496Z" fill="#2B2B2B"/>
</svg>