<svg width="9" height="13" viewBox="0 0 9 13" fill="none" xmlns="http://www.w3.org/2000/svg">
<path d="M9 3.35938C9 3.24219 8.90625 3.05469 8.8125 2.96094L6.53906 0.6875C6.42188 0.570312 6.28125 0.5 6.14062 0.5H6V3.5H9V3.35938ZM5.8125 4.25C5.48438 4.25 5.25 4.01562 5.25 3.6875V0.5H0.5625C0.234375 0.5 0 0.757812 0 1.0625V11.9375C0 12.2656 0.234375 12.5 0.5625 12.5H8.4375C8.74219 12.5 9 12.2656 9 11.9375V4.25H5.8125ZM2.88281 9.89844C2.85938 9.92188 2.8125 9.94531 2.78906 9.94531C2.76562 9.94531 2.71875 9.92188 2.69531 9.89844L1.17188 8.46875C1.14844 8.46875 1.14844 8.42188 1.14844 8.375C1.14844 8.35156 1.14844 8.30469 1.17188 8.30469L2.69531 6.875C2.71875 6.85156 2.76562 6.82812 2.78906 6.82812C2.8125 6.82812 2.85938 6.85156 2.88281 6.875L3.32812 7.36719C3.35156 7.39062 3.375 7.41406 3.375 7.46094C3.375 7.48438 3.35156 7.53125 3.32812 7.55469L2.36719 8.375L3.32812 9.21875C3.35156 9.24219 3.375 9.28906 3.375 9.3125C3.375 9.35938 3.35156 9.38281 3.32812 9.40625L2.88281 9.89844ZM4.07812 11.0703L3.44531 10.9062C3.375 10.8828 3.35156 10.8359 3.35156 10.7656V10.7422L4.78125 5.77344C4.80469 5.72656 4.85156 5.67969 4.89844 5.67969C4.92188 5.67969 4.94531 5.67969 4.94531 5.70312L5.57812 5.86719C5.64844 5.89062 5.67188 5.9375 5.67188 6.00781V6.03125L4.24219 11C4.21875 11.0469 4.17188 11.0938 4.125 11.0938C4.10156 11.0938 4.07812 11.0938 4.07812 11.0703ZM7.85156 8.46875L6.32812 9.89844C6.30469 9.92188 6.25781 9.94531 6.23438 9.94531C6.21094 9.94531 6.16406 9.92188 6.14062 9.89844L5.69531 9.40625C5.67188 9.38281 5.64844 9.35938 5.64844 9.3125C5.64844 9.28906 5.67188 9.24219 5.69531 9.21875L6.65625 8.375L5.69531 7.55469C5.67188 7.53125 5.64844 7.48438 5.64844 7.46094C5.64844 7.41406 5.67188 7.39062 5.69531 7.36719L6.14062 6.875C6.16406 6.85156 6.21094 6.82812 6.23438 6.82812C6.25781 6.82812 6.30469 6.85156 6.32812 6.875L7.85156 8.30469C7.875 8.30469 7.89844 8.35156 7.89844 8.375C7.89844 8.42188 7.875 8.46875 7.85156 8.46875Z" fill="black"/>
</svg>
