<svg width="17" height="15" viewBox="0 0 17 15" fill="none" xmlns="http://www.w3.org/2000/svg">
<path d="M7.39844 14.75C7.53516 14.7773 7.64453 14.7227 7.67188 14.6133L11.5273 1.35156C11.5547 1.24219 11.5 1.10547 11.3906 1.07812L10.3242 0.777344C10.2148 0.75 10.0781 0.804688 10.0508 0.914062L6.19531 14.1758C6.16797 14.2852 6.22266 14.4219 6.35938 14.4492L7.39844 14.75ZM5.12891 11.4414L5.86719 10.6484C5.94922 10.5664 5.94922 10.4297 5.86719 10.3477L2.96875 7.75L5.86719 5.17969C5.94922 5.09766 5.94922 4.96094 5.86719 4.87891L5.12891 4.08594C5.04688 4.00391 4.91016 3.97656 4.82812 4.05859L1.05469 7.61328C0.972656 7.69531 0.972656 7.83203 1.05469 7.91406L4.82812 11.4414C4.91016 11.5234 5.04688 11.5234 5.12891 11.4414ZM12.8945 11.4414L16.668 7.91406C16.75 7.83203 16.75 7.69531 16.668 7.61328L12.8945 4.05859C12.8125 3.97656 12.6758 4.00391 12.5938 4.08594L11.8555 4.87891C11.7734 4.96094 11.7734 5.09766 11.8555 5.17969L14.7539 7.75L11.8555 10.3477C11.7734 10.4297 11.7734 10.5664 11.8555 10.6484L12.5938 11.4414C12.6758 11.5234 12.8125 11.5234 12.8945 11.4414Z" fill="#7F8285"/>
</svg>
