<svg width="0" height="0" style="position:absolute"><symbol fill="none" viewBox="0 0 9 13" id="b1951c4f4a9a94664e52cd1282aa55aa" xmlns="http://www.w3.org/2000/svg"><path d="M5.25 3.688V.5H.562A.555.555 0 000 1.063v10.874c0 .329.234.563.563.563h7.875A.555.555 0 009 11.937V4.25H5.812a.542.542 0 01-.562-.563zm1.5 5.53c0 .165-.14.282-.281.282H2.53a.27.27 0 01-.281-.281V9.03c0-.14.117-.281.281-.281H6.47c.14 0 .281.14.281.281v.188zm0-1.5c0 .165-.14.282-.281.282H2.53a.27.27 0 01-.281-.281V7.53c0-.14.117-.281.281-.281H6.47c.14 0 .281.14.281.281v.188zm0-1.687v.188c0 .164-.14.281-.281.281H2.53a.27.27 0 01-.281-.281V6.03c0-.14.117-.281.281-.281H6.47c.14 0 .281.14.281.281zM9 3.36c0-.14-.07-.28-.164-.398L6.539.664A.665.665 0 006.141.5H6v3h3v-.14z" fill="#000"/></symbol></svg>