<svg width="0" height="0" style="position:absolute"><symbol fill="none" viewBox="0 0 118 20" id="759f80622024d60c21d1fa7cc9fd48cf" xmlns="http://www.w3.org/2000/svg"><path d="M4.112 19.75v-6.408L0 1.852h2.068l3.03 8.861L8.585 0h1.9L6.012 13.417v6.333h-1.9z" fill="#FF3029"/><path d="M16.088 16.896c0 .6.024 1.152.072 1.652.048.5.096.901.144 1.202h-1.587a7.858 7.858 0 01-.168-1.002h-.12c-.273.35-.586.635-.938.851-.353.218-.794.326-1.323.326-.866 0-1.567-.326-2.104-.976-.537-.651-.806-1.602-.806-2.854 0-.667.088-1.276.265-1.827a3.38 3.38 0 01.83-1.39c.376-.375.861-.667 1.454-.876.593-.208 1.315-.312 2.164-.312h.265v-.751c0-.835-.132-1.435-.397-1.803-.264-.367-.661-.55-1.19-.55-.481 0-.922.112-1.323.338-.4.225-.761.48-1.082.763l-.36-1.727c.272-.234.669-.459 1.19-.676a4.367 4.367 0 011.695-.325c.53 0 1.002.066 1.419.2.417.133.765.355 1.046.663.28.309.493.718.637 1.227.144.509.217 1.147.217 1.915v5.932zm-1.852-3.73h-.216c-.578 0-1.05.063-1.42.188-.368.125-.656.309-.865.55-.208.243-.353.53-.433.864-.08.334-.12.701-.12 1.102 0 .734.116 1.318.349 1.752.232.434.589.65 1.07.65.32 0 .629-.095.926-.287.296-.192.533-.43.709-.713v-4.105zM20.296 19.75H18.42V7.109h1.876V8.21h.12c.08-.117.197-.25.349-.4.152-.15.332-.288.54-.413.21-.125.438-.23.686-.313.249-.084.517-.125.806-.125 1.619 0 2.429.95 2.429 2.853v9.938h-1.9V9.988c0-.484-.096-.818-.289-1.002-.192-.183-.473-.275-.841-.275-.401 0-.762.13-1.083.388-.32.259-.593.546-.817.864v9.787zM30.756 19.925c-1.202 0-2.116-.51-2.74-1.527-.626-1.018-.939-2.511-.939-4.48 0-2.337.381-4.08 1.142-5.232.762-1.152 1.752-1.727 2.97-1.727.289 0 .573.046.854.137.28.092.509.205.685.338V1.852h1.876V19.75h-1.395l-.144-1.002h-.12c-.273.35-.581.634-.926.851-.345.217-.766.326-1.263.326zM32.728 9.16c-.192-.2-.397-.35-.613-.45-.216-.1-.485-.15-.806-.15-.384 0-.717.137-.997.413-.281.275-.513.642-.698 1.101-.184.459-.32.985-.409 1.577a12.662 12.662 0 00-.132 1.865c0 1.485.144 2.649.433 3.492.289.843.777 1.264 1.467 1.264.465 0 .834-.1 1.106-.3.273-.2.489-.426.65-.676V9.16zM43.43 18.899a4.664 4.664 0 01-1.287.75c-.473.184-1.014.276-1.623.276-1.25 0-2.237-.505-2.958-1.514-.722-1.01-1.082-2.491-1.082-4.444 0-1.017.068-1.952.204-2.803.136-.851.353-1.59.65-2.215.296-.626.677-1.114 1.142-1.465.465-.35 1.018-.525 1.659-.525.497 0 .954.104 1.37.313.417.208.77.546 1.059 1.013.288.468.513 1.073.673 1.815.16.743.24 1.648.24 2.716v1.076h-5.05c0 1.436.189 2.52.566 3.255.376.734.941 1.1 1.695 1.1.53 0 .986-.095 1.37-.287a5.9 5.9 0 00.938-.563l.433 1.502zM40.134 8.56c-.577 0-.986.338-1.227 1.014-.24.675-.392 1.58-.456 2.715h3.102c0-.534-.024-1.03-.072-1.489a6.192 6.192 0 00-.229-1.189c-.104-.334-.248-.592-.433-.776a.933.933 0 00-.685-.275zM51.63 7.134l-2.26 5.907 2.524 6.709h-1.948l-1.875-5.207-1.828 5.207H44.39l2.525-6.533-2.284-6.083h1.948l1.563 4.58 1.659-4.58h1.828zM62.499 14.193h-4.064l-1.106 5.557H56.27l3.655-17.898h1.25l3.631 17.898H63.63l-1.13-5.557zm-3.872-1.027h3.68l-1.491-7.384c-.08-.384-.145-.8-.193-1.251-.048-.45-.08-.826-.096-1.127h-.048c-.032.3-.084.664-.156 1.09-.072.425-.149.846-.229 1.263l-1.467 7.41zM70.603 8.285c-1.362.05-2.325.952-2.886 2.704v8.76h-1.13V7.135h1.034l.048 2.528h.072c.097-.3.229-.6.397-.901.169-.3.373-.572.613-.814.241-.242.518-.442.83-.6a2.794 2.794 0 011.022-.288v1.226zM75.484 18.974c.385 0 .726-.067 1.022-.2.297-.134.55-.293.758-.476.24-.184.449-.409.625-.676l.36.976c-.175.267-.4.5-.672.701a3.278 3.278 0 01-.878.488c-.36.142-.774.213-1.239.213-1.218 0-2.16-.572-2.825-1.715-.666-1.143-.998-2.749-.998-4.818 0-2.086.329-3.705.986-4.856.657-1.152 1.61-1.727 2.861-1.727.626 0 1.155.112 1.588.337.432.226.785.505 1.058.839l-.313 1.252a4.41 4.41 0 00-.986-1.002 2.208 2.208 0 00-1.347-.425c-.93 0-1.615.484-2.056 1.452-.44.968-.66 2.344-.66 4.13 0 1.735.216 3.087.648 4.055.433.968 1.123 1.452 2.068 1.452zM85.151 19.75c-.048-.167-.1-.38-.156-.639a7.919 7.919 0 01-.132-1.064c-.289.601-.65 1.077-1.082 1.427-.433.35-.954.526-1.563.526-.818 0-1.483-.321-1.996-.964-.513-.642-.77-1.54-.77-2.69 0-1.352.345-2.374 1.034-3.067.69-.693 1.692-1.039 3.006-1.039h1.323v-1.577c0-.968-.169-1.668-.505-2.102-.337-.434-.842-.651-1.515-.651a3.05 3.05 0 00-2.549 1.377l-.313-1.127c.24-.334.605-.63 1.094-.888.49-.26 1.078-.388 1.768-.388 1.01 0 1.783.296 2.32.888.537.593.806 1.515.806 2.766v6.884c0 .434.024.872.072 1.314.048.442.112.78.192 1.014h-1.034zm-2.693-.701c.561 0 1.038-.242 1.43-.726.394-.484.702-1.068.927-1.752v-3.48h-1.299c-1.01 0-1.755.25-2.236.751-.481.5-.722 1.302-.722 2.403 0 .901.173 1.594.517 2.078.345.484.806.726 1.383.726zM92.366 7.885c-.61 0-1.139.242-1.588.726-.448.484-.825 1.126-1.13 1.927v9.212h-1.13V7.134h1.034L89.6 9.21h.048a4.088 4.088 0 01.986-1.502c.24-.233.521-.43.842-.588.32-.158.69-.237 1.106-.237.818 0 1.447.258 1.888.776.44.517.661 1.276.661 2.277v9.813h-1.13v-9.662c0-1.469-.545-2.203-1.635-2.203zM100.349 18.999c.609 0 1.135-.242 1.575-.726.441-.484.814-1.126 1.119-1.927V7.134h1.13V19.75h-1.034l-.048-2.078h-.048a4.076 4.076 0 01-.361.751c-.16.267-.357.518-.589.751-.233.234-.509.43-.83.588a2.463 2.463 0 01-1.106.238c-.818 0-1.443-.296-1.876-.889-.433-.592-.649-1.456-.649-2.59V7.134h1.13v9.237c0 1.752.53 2.628 1.587 2.628zM107.996 19.75h-1.13V7.134h1.034l.048 1.902h.048c.097-.2.221-.425.373-.676.152-.25.341-.484.565-.7.225-.217.485-.401.782-.551.296-.15.629-.225.998-.225 1.266 0 2.012.692 2.236 2.077h.024c.08-.167.196-.371.349-.613.152-.242.344-.472.577-.688.232-.217.497-.401.793-.551.297-.15.63-.225.998-.225.722 0 1.287.242 1.696.725.409.484.613 1.202.613 2.153v9.988h-1.13V9.912c0-.7-.104-1.214-.313-1.54-.208-.325-.553-.487-1.034-.487-.561 0-1.05.22-1.467.663-.417.442-.769 1.006-1.058 1.69v9.512h-1.13V9.912c0-.7-.1-1.214-.301-1.54-.2-.325-.541-.487-1.022-.487-.561 0-1.05.225-1.467.676-.416.45-.777 1.051-1.082 1.802v9.387z" fill="#2B2B2B"/></symbol></svg>